<?xml version="1.0" encoding="UTF-8"?>
<svg width="15px" height="15px" viewBox="0 0 15 15" version="1.1" xmlns="http://www.w3.org/2000/svg" xmlns:xlink="http://www.w3.org/1999/xlink">
    <!-- Generator: Sketch 54.1 (76490) - https://sketchapp.com -->
    <title>baseline-format_align_right-24px</title>
    <desc>Created with Sketch.</desc>
    <g id="Page-1" stroke="none" stroke-width="1" fill="none" fill-rule="evenodd">
        <g id="baseline-format_align_right-24px" transform="translate(-4.000000, -4.000000)">
            <path d="M4,19 L19,19 L19,17.3333333 L4,17.3333333 L4,19 Z M9,15.6666667 L19,15.6666667 L19,14 L9,14 L9,15.6666667 Z M4,12.3333333 L19,12.3333333 L19,10.6666667 L4,10.6666667 L4,12.3333333 Z M9,9 L19,9 L19,7.33333333 L9,7.33333333 L9,9 Z M4,4 L4,5.66666667 L19,5.66666667 L19,4 L4,4 Z" id="Shape" fill="#2D3136" fill-rule="nonzero"></path>
            <polygon id="Path" points="0 0 24 0 24 24 0 24"></polygon>
        </g>
    </g>
</svg>