<?xml version="1.0" encoding="UTF-8"?>
<svg width="37px" height="37px" viewBox="0 0 37 37" version="1.1" xmlns="http://www.w3.org/2000/svg" xmlns:xlink="http://www.w3.org/1999/xlink">
    <!-- Generator: Sketch 54.1 (76490) - https://sketchapp.com -->
    <title>Group</title>
    <desc>Created with Sketch.</desc>
    <g id="Page-1" stroke="none" stroke-width="1" fill="none" fill-rule="evenodd">
        <g id="drop" transform="translate(-54.000000, 0.000000)" fill="#2D3136" fill-rule="nonzero">
            <g id="Group" transform="translate(54.000000, 0.419355)">
                <path id="Line" d="M27.9032258,18.5806452 L7.25806452,18.5806452 L7.25806452,17.5806452 L27.9032258,17.5806452 L27.9032258,13.5806452 L36.9032258,18.0806452 L27.9032258,22.5806452 L27.9032258,18.5806452 Z"></path>
                <path id="Line" d="M20.7419355,18.5806452 L0.0967741935,18.5806452 L0.0967741935,17.5806452 L20.7419355,17.5806452 L20.7419355,13.5806452 L29.7419355,18.0806452 L20.7419355,22.5806452 L20.7419355,18.5806452 Z"></path>
                <path id="Line" d="M24.3225806,15 L3.67741935,15 L3.67741935,14 L24.3225806,14 L24.3225806,10 L33.3225806,14.5 L24.3225806,19 L24.3225806,15 Z"></path>
                <path id="Line" d="M24.3225806,22.1612903 L3.67741935,22.1612903 L3.67741935,21.1612903 L24.3225806,21.1612903 L24.3225806,17.1612903 L33.3225806,21.6612903 L24.3225806,26.1612903 L24.3225806,22.1612903 Z"></path>
            </g>
        </g>
    </g>
</svg>