<?xml version="1.0" encoding="UTF-8"?>
<svg width="24px" height="24px" viewBox="0 0 24 24" version="1.1" xmlns="http://www.w3.org/2000/svg" xmlns:xlink="http://www.w3.org/1999/xlink">
    <!-- Generator: Sketch 54.1 (76490) - https://sketchapp.com -->
    <title>uppercase-on</title>
    <desc>Created with Sketch.</desc>
    <g id="Page-1" stroke="none" stroke-width="1" fill="none" fill-rule="evenodd">
        <g id="uppercase-on" fill-rule="nonzero">
            <rect id="Rectangle" fill="#FFFFFF" x="0" y="0" width="24" height="24"></rect>
            <path d="M6.30570918,16.4705882 L5.72115035,14.5514706 L2.78181212,14.5514706 L2.19725329,16.4705882 L0.355341529,16.4705882 L3.20092976,8.375 L5.29100329,8.375 L8.14762094,16.4705882 L6.30570918,16.4705882 Z M5.31306212,13.1176471 C4.77261824,11.3786678 4.46839334,10.3952217 4.40037829,10.1672794 C4.33236325,9.9393371 4.2836505,9.75919184 4.25423859,9.62683824 C4.13291445,10.0974288 3.78549146,11.2610201 3.21195918,13.1176471 L5.31306212,13.1176471 Z M9.39969718,8.40808824 L11.9088884,8.40808824 C13.0522764,8.40808824 13.8822314,8.57077043 14.3987781,8.89613971 C14.9153248,9.22150898 15.1735942,9.73896704 15.1735942,10.4485294 C15.1735942,10.9301495 15.0605439,11.3253661 14.8344398,11.6341912 C14.6083358,11.9430162 14.3077873,12.1286762 13.9327854,12.1911765 L13.9327854,12.2463235 C14.4438174,12.3602947 14.8123799,12.5735278 15.0384839,12.8860294 C15.264588,13.198531 15.3776384,13.613968 15.3776384,14.1323529 C15.3776384,14.8676507 15.112016,15.4411744 14.5807634,15.8529412 C14.0495107,16.2647079 13.3280106,16.4705882 12.4162413,16.4705882 L9.39969718,16.4705882 L9.39969718,8.40808824 Z M11.109256,11.6011029 L12.1019031,11.6011029 C12.5651407,11.6011029 12.9006153,11.5294125 13.1083369,11.3860294 C13.3160585,11.2426463 13.4199178,11.0055164 13.4199178,10.6746324 C13.4199178,10.3658073 13.3068674,10.1443021 13.0807634,10.0101103 C12.8546593,9.87591845 12.4971261,9.80882353 12.0081531,9.80882353 L11.109256,9.80882353 L11.109256,11.6011029 Z M11.109256,12.9577206 L11.109256,15.0588235 L12.2232266,15.0588235 C12.6938172,15.0588235 13.0412402,14.9687509 13.265506,14.7886029 C13.4897718,14.608455 13.6019031,14.3327224 13.6019031,13.9613971 C13.6019031,13.2922761 13.1239667,12.9577206 12.1680795,12.9577206 L11.109256,12.9577206 Z M20.6499352,9.71507353 C20.0065496,9.71507353 19.5083928,9.95679905 19.1554499,10.4402574 C18.8025069,10.9237157 18.6260381,11.5974222 18.6260381,12.4613971 C18.6260381,14.2592002 19.3006637,15.1580882 20.6499352,15.1580882 C21.2161145,15.1580882 21.9017694,15.0165455 22.7069205,14.7334559 L22.7069205,16.1672794 C22.0451525,16.4430161 21.3061893,16.5808824 20.4900087,16.5808824 C19.3172087,16.5808824 18.4201589,16.2251874 17.7988322,15.5137868 C17.1775056,14.8023861 16.8668469,13.7812567 16.8668469,12.4503676 C16.8668469,11.6121282 17.0194189,10.8777605 17.3245675,10.2472426 C17.6297161,9.61672479 18.0681308,9.13327374 18.6398249,8.796875 C19.2115189,8.46047626 19.881549,8.29227941 20.6499352,8.29227941 C21.4330273,8.29227941 22.2197842,8.48161575 23.0102293,8.86029412 L22.4587587,10.25 C22.1572866,10.1066169 21.8539808,9.98161818 21.5488322,9.875 C21.2436837,9.76838182 20.9440543,9.71507353 20.6499352,9.71507353 Z" id="ABC" fill="#3C3C3C"></path>
        </g>
    </g>
</svg>