<?xml version="1.0" encoding="UTF-8"?>
<svg width="24px" height="24px" viewBox="0 0 24 24" version="1.1" xmlns="http://www.w3.org/2000/svg" xmlns:xlink="http://www.w3.org/1999/xlink">
    <!-- Generator: Sketch 54.1 (76490) - https://sketchapp.com -->
    <title>uppercase-off</title>
    <desc>Created with Sketch.</desc>
    <g id="Page-1" stroke="none" stroke-width="1" fill="none" fill-rule="evenodd">
        <g id="uppercase-off" fill-rule="nonzero">
            <rect id="Rectangle" fill="#FFFFFF" x="0" y="0" width="24" height="24"></rect>
            <path d="M6.61269447,16.3529412 L6.28732682,15.5147059 L6.24320918,15.5147059 C5.96011953,15.8713253 5.66876215,16.1185655 5.36912829,16.2564338 C5.06949444,16.3943022 4.67887335,16.4632353 4.19725329,16.4632353 C3.60533857,16.4632353 3.13935058,16.2941193 2.79927535,15.9558824 C2.45920012,15.6176454 2.28916506,15.1360325 2.28916506,14.5110294 C2.28916506,13.8566144 2.51802306,13.3740824 2.97574594,13.0634191 C3.43346882,12.7527558 4.12371927,12.5808825 5.046518,12.5477941 L6.11637094,12.5147059 L6.11637094,12.2444853 C6.11637094,11.6194822 5.7965212,11.3069853 5.15681212,11.3069853 C4.6641626,11.3069853 4.08512427,11.4558809 3.41967976,11.7536765 L2.86269447,10.6176471 C3.57225684,10.2463217 4.35901368,10.0606618 5.22298859,10.0606618 C6.05019861,10.0606618 6.68438344,10.240807 7.12556212,10.6011029 C7.56674079,10.9613989 7.78732682,11.5091875 7.78732682,12.2444853 L7.78732682,16.3529412 L6.61269447,16.3529412 Z M6.11637094,13.4963235 L5.46563565,13.5183824 C4.97666261,13.5330883 4.61269567,13.6213227 4.37372388,13.7830882 C4.1347521,13.9448538 4.015268,14.1911748 4.015268,14.5220588 C4.015268,14.9963235 4.2873241,15.2334559 4.83144447,15.2334559 C5.2211523,15.2334559 5.53273007,15.1213247 5.76618712,14.8970588 C5.99964417,14.672793 6.11637094,14.3750019 6.11637094,14.0036765 L6.11637094,13.4963235 Z M13.1864619,10.0716912 C13.9144067,10.0716912 14.4842539,10.3556957 14.8960207,10.9237132 C15.3077875,11.4917308 15.5136678,12.2702156 15.5136678,13.2591912 C15.5136678,14.2775786 15.3013537,15.0661737 14.8767192,15.625 C14.4520848,16.1838263 13.8739655,16.4632353 13.1423442,16.4632353 C12.4180759,16.4632353 11.8500669,16.2003703 11.4383001,15.6746324 L11.3224913,15.6746324 L11.0412413,16.3529412 L9.75631482,16.3529412 L9.75631482,7.77205882 L11.4383001,7.77205882 L11.4383001,9.76838235 C11.4383001,10.0220601 11.4162415,10.428306 11.3721236,10.9871324 L11.4383001,10.9871324 C11.8316844,10.3768352 12.4143992,10.0716912 13.1864619,10.0716912 Z M12.6460207,11.4172794 C12.2305775,11.4172794 11.9272717,11.5450355 11.7360942,11.8005515 C11.5449168,12.0560675 11.4456531,12.4779382 11.4383001,13.0661765 L11.4383001,13.2481618 C11.4383001,13.9099298 11.5366447,14.3841897 11.7333369,14.6709559 C11.930029,14.957722 12.2416068,15.1011029 12.6680795,15.1011029 C13.0136695,15.1011029 13.2884829,14.9420972 13.4925281,14.6240809 C13.6965732,14.3060646 13.7985942,13.843753 13.7985942,13.2371324 C13.7985942,12.6305117 13.6956541,12.175553 13.4897707,11.8722426 C13.2838873,11.5689323 13.0026401,11.4172794 12.6460207,11.4172794 Z M19.6444205,16.4632353 C17.7252932,16.4632353 16.765744,15.409937 16.765744,13.3033088 C16.765744,12.2555095 17.0267708,11.454966 17.5488322,10.9016544 C18.0708937,10.3483428 18.819048,10.0716912 19.7933175,10.0716912 C20.5065564,10.0716912 21.1462559,10.2113957 21.7124352,10.4908088 L21.2161116,11.7922794 C20.9514044,11.6856612 20.7050834,11.5983459 20.4771411,11.5303309 C20.2491987,11.4623158 20.0212598,11.4283088 19.7933175,11.4283088 C18.9183132,11.4283088 18.4808175,12.0496261 18.4808175,13.2922794 C18.4808175,14.4981678 18.9183132,15.1011029 19.7933175,15.1011029 C20.1168486,15.1011029 20.4164779,15.0579048 20.6922146,14.9715074 C20.9679513,14.8851099 21.2436838,14.7500009 21.5194205,14.5661765 L21.5194205,16.0055147 C21.2473603,16.1783097 20.9725469,16.2977938 20.6949719,16.3639706 C20.417397,16.4301474 20.0672167,16.4632353 19.6444205,16.4632353 Z" id="abc" fill="#3C3C3C"></path>
        </g>
    </g>
</svg>